HIERARCHY
ROOT hip
{
  OFFSET 0 0 0
  CHANNELS 6 Xposition Yposition Zposition Zrotation Yrotation Xrotation
  JOINT abdomen
  {
    OFFSET 0 20.6881 -0.73152
    CHANNELS 3 Zrotation Xrotation Yrotation
    JOINT chest
    {
      OFFSET 0 11.7043 -0.48768
      CHANNELS 3 Zrotation Xrotation Yrotation
      JOINT neck
      {
        OFFSET 0 22.1894 -2.19456
        CHANNELS 3 Zrotation Xrotation Yrotation
        JOINT head
        {
          OFFSET -0.24384 7.07133 1.2192
          CHANNELS 3 Zrotation Xrotation Yrotation
          JOINT leftEye
          {
            OFFSET 4.14528 8.04674 8.04672
            CHANNELS 3 Zrotation Xrotation Yrotation
            End Site
            {
              OFFSET 1 0 0
            }
          }
          JOINT rightEye
          {
            OFFSET -3.6576 8.04674 8.04672
            CHANNELS 3 Zrotation Xrotation Yrotation
            End Site
            {
              OFFSET 1 0 0
            }
          }
        }
      }
      JOINT rCollar
      {
        OFFSET -2.68224 19.2634 -4.8768
        CHANNELS 3 Zrotation Xrotation Yrotation
        JOINT rShldr
        {
          OFFSET -8.77824 -1.95073 1.46304
          CHANNELS 3 Zrotation Xrotation Yrotation
          JOINT rForeArm
          {
            OFFSET -28.1742 -1.7115 0.48768
            CHANNELS 3 Zrotation Xrotation Yrotation
            JOINT rHand
            {
              OFFSET -22.5879 0.773209 7.07136
              CHANNELS 3 Zrotation Xrotation Yrotation
              JOINT rThumb1
              {
                OFFSET -1.2192 -0.487915 3.41376
                CHANNELS 3 Zrotation Xrotation Yrotation
                JOINT rThumb2
                {
                  OFFSET -3.37035 -0.52449 3.41376
                  CHANNELS 3 Zrotation Xrotation Yrotation
                  End Site
                  {
                    OFFSET -1.78271 -1.18214 1.43049
                  }
                }
              }
              JOINT rIndex1
              {
                OFFSET -7.75947 0.938293 5.60832
                CHANNELS 3 Zrotation Xrotation Yrotation
                JOINT rIndex2
                {
                  OFFSET -2.54057 -0.884171 1.56538
                  CHANNELS 3 Zrotation Xrotation Yrotation
                  End Site
                  {
                    OFFSET -1.62519 -0.234802 1.16502
                  }
                }
              }
              JOINT rMid1
              {
                OFFSET -8.24714 1.18213 3.41376
                CHANNELS 3 Zrotation Xrotation Yrotation
                JOINT rMid2
                {
                  OFFSET -3.10165 -0.590103 1.0647
                  CHANNELS 3 Zrotation Xrotation Yrotation
                  End Site
                  {
                    OFFSET -2.48547 -0.328903 0.83742
                  }
                }
              }
              JOINT rRing1
              {
                OFFSET -8.82822 0.546677 1.51678
                CHANNELS 3 Zrotation Xrotation Yrotation
                JOINT rRing2
                {
                  OFFSET -2.60934 -0.819778 -0.0198488
                  CHANNELS 3 Zrotation Xrotation Yrotation
                  End Site
                  {
                    OFFSET -2.33842 -0.294052 0.168128
                  }
                }
              }
              JOINT rPinky1
              {
                OFFSET -8.27202 -0.0477905 -0.4584
                CHANNELS 3 Zrotation Xrotation Yrotation
                JOINT rPinky2
                {
                  OFFSET -1.82734 -0.647385 -0.700984
                  CHANNELS 3 Zrotation Xrotation Yrotation
                  End Site
                  {
                    OFFSET -1.69225 -0.51767 -0.607171
                  }
                }
              }
            }
          }
        }
      }
      JOINT lCollar
      {
        OFFSET 2.68224 19.2634 -4.8768
        CHANNELS 3 Zrotation Xrotation Yrotation
        JOINT lShldr
        {
          OFFSET 8.77824 -1.95073 1.46304
          CHANNELS 3 Zrotation Xrotation Yrotation
          JOINT lForeArm
          {
            OFFSET 28.1742 -1.7115 0.48768
            CHANNELS 3 Zrotation Xrotation Yrotation
            JOINT lHand
            {
              OFFSET 22.5879 0.773209 7.07136
              CHANNELS 3 Zrotation Xrotation Yrotation
              JOINT lThumb1
              {
                OFFSET 1.2192 -0.487915 3.41376
                CHANNELS 3 Zrotation Xrotation Yrotation
                JOINT lThumb2
                {
                  OFFSET 3.37035 -0.52449 3.41376
                  CHANNELS 3 Zrotation Xrotation Yrotation
                  End Site
                  {
                    OFFSET 1.78271 -1.18214 1.43049
                  }
                }
              }
              JOINT lIndex1
              {
                OFFSET 7.75947 0.938293 5.60832
                CHANNELS 3 Zrotation Xrotation Yrotation
                JOINT lIndex2
                {
                  OFFSET 2.54057 -0.884171 1.56538
                  CHANNELS 3 Zrotation Xrotation Yrotation
                  End Site
                  {
                    OFFSET 1.62519 -0.234802 1.16502
                  }
                }
              }
              JOINT lMid1
              {
                OFFSET 8.24714 1.18213 3.41376
                CHANNELS 3 Zrotation Xrotation Yrotation
                JOINT lMid2
                {
                  OFFSET 3.10165 -0.590103 1.0647
                  CHANNELS 3 Zrotation Xrotation Yrotation
                  End Site
                  {
                    OFFSET 2.48547 -0.328903 0.83742
                  }
                }
              }
              JOINT lRing1
              {
                OFFSET 8.82822 0.546677 1.51678
                CHANNELS 3 Zrotation Xrotation Yrotation
                JOINT lRing2
                {
                  OFFSET 2.60934 -0.819778 -0.0198488
                  CHANNELS 3 Zrotation Xrotation Yrotation
                  End Site
                  {
                    OFFSET 2.33842 -0.294052 0.168128
                  }
                }
              }
              JOINT lPinky1
              {
                OFFSET 8.27202 -0.0477905 -0.4584
                CHANNELS 3 Zrotation Xrotation Yrotation
                JOINT lPinky2
                {
                  OFFSET 1.82734 -0.647385 -0.700984
                  CHANNELS 3 Zrotation Xrotation Yrotation
                  End Site
                  {
                    OFFSET 1.69225 -0.51767 -0.607171
                  }
                }
              }
            }
          }
        }
      }
    }
  }
  JOINT rButtock
  {
    OFFSET -8.77824 4.35084 1.2192
    CHANNELS 3 Zrotation Xrotation Yrotation
    JOINT rThigh
    {
      OFFSET 0 -1.70687 -2.19456
      CHANNELS 3 Zrotation Xrotation Yrotation
      JOINT rShin
      {
        OFFSET 0 -36.8199 0.73152
        CHANNELS 3 Zrotation Xrotation Yrotation
        JOINT rFoot
        {
          OFFSET 0.73152 -45.1104 -5.12064
          CHANNELS 3 Zrotation Xrotation Yrotation
          End Site
          {
            OFFSET -1.1221 -3.69964 12.103
          }
        }
      }
    }
  }
  JOINT lButtock
  {
    OFFSET 8.77824 4.35084 1.2192
    CHANNELS 3 Zrotation Xrotation Yrotation
    JOINT lThigh
    {
      OFFSET 0 -1.70687 -2.19456
      CHANNELS 3 Zrotation Xrotation Yrotation
      JOINT lShin
      {
        OFFSET 0 -36.8199 0.73152
        CHANNELS 3 Zrotation Xrotation Yrotation
        JOINT lFoot
        {
          OFFSET -0.73152 -45.1104 -5.12064
          CHANNELS 3 Zrotation Xrotation Yrotation
          End Site
          {
            OFFSET 1.1221 -3.69964 12.103
          }
        }
      }
    }
  }
}
MOTION
Frames:	4
Frame Time:	0.03333
0.0 0.0 0.0 0.0 0.0 0.0 0.0 0.0 0.0 0.0 0.0 0.0 0.0 0.0 0.0 0.0 0.0 0.0 0.0 0.0 0.0 0.0 0.0 0.0 0.0 0.0 0.0 0.0 0.0 0.0 0.0 0.0 0.0 0.0 0.0 0.0 0.0 0.0 0.0 0.0 0.0 0.0 0.0 0.0 0.0 0.0 0.0 0.0 0.0 0.0 0.0 0.0 0.0 0.0 0.0 0.0 0.0 0.0 0.0 0.0 0.0 0.0 0.0 0.0 0.0 0.0 0.0 0.0 0.0 0.0 0.0 0.0 0.0 0.0 0.0 0.0 0.0 0.0 0.0 0.0 0.0 0.0 0.0 0.0 0.0 0.0 0.0 0.0 0.0 0.0 0.0 0.0 0.0 0.0 0.0 0.0 0.0 0.0 0.0 0.0 0.0 0.0 0.0 0.0 0.0 0.0 0.0 0.0 0.0 0.0 0.0 0.0 0.0 0.0 0.0 0.0 0.0 0.0 0.0 0.0 0.0 0.0 0.0 0.0 0.0 0.0 0.0 0.0 0.0 0.0 0.0 0.0
0.053200000000000004 66.27629999999999 -0.0568 -0.146827 -41.687663 -0.229946 -2.494772 -2.345677 105.38184 -6.203949 -9.195207 123.680584 -10.932002 -9.856768 -98.336185 -40.09788 -16.205373 -61.430857 144.398718 17.021924 -49.978258 -29.75246 1.389979 -5.229286 64.530563 45.280526 20.825207 1.847703 24.661706 5.9896 -12.364267 71.084567 52.199542 -179.241924 -1.48169 -104.779174 -122.216075 58.761449 -155.83681 140.300594 44.529548 -96.118675 -154.586686 -28.618211 168.06028 -135.256707 73.929413 -2.743628 -17.717339 -47.179209 -42.763457 4.431021 42.270339 -65.085733 70.220365 57.737744 -57.657527 -38.133297 -37.061166 -50.283781 -173.126242 2.775843 -51.356141 -176.045454 24.808404 -57.224434 -55.004031 21.776986 -13.702733 140.749013 29.706218 -165.200689 1.152531 9.617527 -163.717241 -20.363453 -45.241958 60.145745 -3.740517 -14.622599 -19.566562 -77.398026 76.39779 18.883835 -142.526463 2.957057 121.54197 179.877255 19.309996 36.253197 -177.445882 17.653367 86.448048 -150.043499 14.286316 145.94872 90.875313 22.650773 89.143354 -30.86181 -37.880631 85.779259 144.635519 22.52049 75.317907 176.468693 43.494002 118.538904 -51.451479 -17.110093 -77.082873 -2.172461 53.029796 -146.373328 6.620713 -2.279492 76.509906 85.752547 56.821699 -92.515444 30.539291 -29.44436 44.276053 -5.283931 36.694586 176.303952 6.452066 -4.474949 91.049131 -70.474958 -7.069887 89.106323
1.0595999999999999 57.945899999999995 1.7905999999999997 5.625709 -60.109089 1.645815 -6.580019 2.058633 -97.791292 2.689588 2.016495 101.945892 -8.879374 36.236134 -124.787091 44.946464 30.680298 82.614622 47.078755 -0.748146 -1.717285 6.862713 -0.94508 -15.663855 0.875791 15.529902 1.002671 74.605132 -55.475567 24.624275 44.779071 36.619851 26.08493 -11.203969 48.988328 -0.942651 13.033989 -15.656641 -7.97318 -128.984938 -42.521815 118.840946 26.659535 -12.811967 53.710275 -4.959474 35.809276 -36.562747 -30.722233 58.20875 -9.618576 -12.482962 -17.551031 29.651387 -132.236887 -35.800393 -144.891341 44.558092 38.083867 24.001957 -46.423949 -27.557595 25.38135 122.935565 38.665086 -7.035269 -97.819068 -84.445428 -78.434525 42.280177 -30.272614 66.46666 -10.564851 -11.204254 83.848839 178.722427 -1.402628 -146.447107 172.402871 4.3402 -106.646261 125.709568 6.834147 -81.279875 175.431781 71.398822 -84.129499 9.172606 -57.039227 -60.372846 1.399067 10.144521 4.239398 -151.380227 -35.050907 -138.840132 -26.459923 -34.398411 -22.541835 34.677337 -2.61961 46.471667 -8.795069 -53.063457 -13.389973 44.172929 -26.803498 -61.548159 -77.898188 51.273248 -62.644115 101.779101 6.42081 96.168462 50.811392 26.833372 -151.865661 1.084439 3.03022 91.676385 -58.0661 2.895616 -18.500239 79.198895 -1.905476 95.065931 54.137534 20.998118 71.52487 128.174264 53.254142 151.45724
1.4157 60.505399999999995 4.491499999999999 13.80429 -57.164324 -7.80318 -15.084372 16.620383 -59.885487 18.098877 -5.366783 59.477045 3.911631 48.623289 164.820963 -6.807869 50.216468 154.067841 135.114219 -22.800086 52.040338 4.059125 -0.178035 -5.020711 1.330747 -2.980184 -0.548168 50.469845 14.903094 -3.27104 -1.575769 3.502827 48.756918 -6.2647 10.739532 -0.555334 15.254654 2.173874 1.320732 -72.118938 26.698463 40.126188 20.203489 -21.530175 20.626682 -137.652811 -79.232731 149.405668 -167.948083 -14.191509 158.617567 -34.983178 -69.903116 -54.707033 -37.403871 -73.888899 -47.568591 32.230737 -49.359934 39.045449 -155.13818 34.260633 -163.706347 -4.078399 47.709838 6.130553 9.823401 37.63263 -12.301809 -73.175694 -21.595525 -34.395589 2.47496 33.27706 -47.417103 -1.221285 -1.04369 1.913773 -2.3927 -15.750334 19.181446 24.828696 -19.190218 -59.728506 122.714871 45.425214 -100.453549 3.65981 -4.774303 3.474624 -11.690826 -43.374534 -19.415147 20.952194 -71.135313 40.377479 14.800775 30.198745 -45.981943 22.139534 -34.936086 78.698302 118.495874 -79.678399 101.071956 -19.504714 38.497523 19.353232 22.172686 1.276757 4.463427 -73.102781 -48.382932 6.238371 56.634678 33.71935 -32.958654 -172.718167 -31.339583 38.441762 104.611258 55.425878 33.65603 -90.622985 28.403923 -179.255728 -26.559217 -40.076202 105.789995 101.129468 32.646769 -12.942448
